<svg xmlns="http://www.w3.org/2000/svg" width="40" height="49" viewBox="0 0 40 49">
<path d="M27.2 27.5l1.2-1.5-1.1-1-1.4 1.5-4-4 7.9-8s2.2-2.4 2.3-4.2c0 0-1.5-.4-4.3 2.5L20 20.6l-7.8-7.8C9.4 9.8 8 10.3 8 10.3c0 1.8 2.3 4.3 2.3 4.3l7.9 7.9-4 4-1.4-1.5-1 1 1 1.5-4.1 4.3s-1 1.1-.7 1.6c0 0 1 2.1 2 .9l.4-1.6s.2-.4 1.6-.3c0 0 .5 0 .6-1.2l2.3-1.9 1.2 1.3 1.1-1-1-1.2 3.9-4 3.9 4-1 1.2 1 1 1.2-1.3 2.4 1.9c0 1.1.6 1.2.6 1.2 1.4 0 1.6.3 1.6.3l.4 1.6c1 1.2 2-1 2-1 .3-.4-.7-1.5-.7-1.5l-4.2-4.3zm-7.1 21.2C-4 39.5 0 11.7.4 5.2 5 1.1 20 0 20 0c.7 0 15 1.2 19.5 5.2.4 6.4 4.5 34.2-19.4 43.5z" fill="#ffffff" fill-rule="evenodd" stroke="none" stroke-width="1px"></path>
</svg>